<svg xmlns="http://www.w3.org/2000/svg" viewBox="0 0 267.61 87.13"><defs><style>.cls-1{fill:#fe6600;}.cls-2{fill:#fff;}.cls-3{fill:#4d0996;}</style></defs><g id="圖層_2" data-name="圖層 2"><g id="圖層_7" data-name="圖層 7"><path class="cls-1" d="M125.69,59.49C126.15,58.4,135.52,23,95.36,23S52.82,81.68,89.81,86.59c32.72,4.34,37.06-18.65,37.06-18.65l-19,.61S90.08,81,82.85,60Z"/><path class="cls-2" d="M85.53,46.93h22.38s-.61-9.42-11.19-9.15S85.53,46.93,85.53,46.93Z"/></g><g id="圖層_2-2" data-name="圖層 2"><polygon class="cls-3" points="145.31 0 193.93 0 193.93 19.02 165.49 19.02 166.1 32.21 193.93 32.21 193.93 50.92 166.71 50.92 166.1 67.49 193.93 67.49 193.93 87.12 145.31 87.12 145.31 0"/></g><g id="圖層_3" data-name="圖層 3"><polygon class="cls-3" points="267.61 32.7 244.68 59.3 267.61 87.12 243.45 87.12 230.92 73.97 219 87.12 193.93 87.12 218.69 59.91 193.93 32.4 220.22 32.4 230.76 45.11 243.45 32.4 267.61 32.7"/></g><g id="圖層_5" data-name="圖層 5"><rect class="cls-1" width="19.36" height="87.12"/><rect class="cls-1" x="40.86" width="19.8" height="87.12"/><rect class="cls-1" x="-13.62" y="34.11" width="87.46" height="19.1" transform="translate(55.97 -2.64) rotate(63.78)"/></g><g id="圖層_6" data-name="圖層 6"><rect class="cls-1" x="103.75" width="37.06" height="19.18"/><rect class="cls-1" x="129.87" width="18.65" height="87.12"/></g></g></svg>